<svg viewBox="0 0 1132 804" xmlns:xlink="http://www.w3.org/1999/xlink" xmlns:ev="http://www.w3.org/2001/xml-events" xmlns="http://www.w3.org/2000/svg" height="804" width="1132"><defs><linearGradient y2="100%" x1="0%" id="lg1" y1="0%" x2="0%"><stop stop-color="#3ca057" offset="0.00"/><stop stop-color="#ffffff" offset="0.57"/><stop stop-color="#3ca057" offset="1.00"/></linearGradient></defs><g id="page1" transform="translate(5.5,5.5)"><rect x="0" height="794" width="1123" fill="none" y="0"/><path d="M381.2,687.9L381.2,.0L.0,.0L.0,687.9L381.2,687.9z" stroke="#101843" fill="#ffffff" id="shape1" fill-rule="nonzero" transform="translate(299.094488,75.590551)" stroke-width="1"/><g id="group2" transform="translate(89.158543,241.505394)"><path d="M37.1,.0L37.1,37.9L.0,75.9M37.1,37.9L74.2,75.9M.0,15.2L74.2,15.2" stroke="#101843" fill="none" id="shape3" transform="translate(0.000000,40.811800)" stroke-width="1"/><path d="M.0,20.4C.0,9.1,9.1,.0,20.4,.0C31.7,.0,40.8,9.1,40.8,20.4C40.8,31.7,31.7,40.8,20.4,40.8C9.1,40.8,.0,31.7,.0,20.4z" stroke="#101843" fill="#e55e79" id="shape4" fill-rule="nonzero" transform="translate(16.695600,0.000000)" stroke-width="1"/><text style="fill:#191919;font-family:Arial,PingFang SC,Mircrosoft YaHei,Arial;font-size:16.00pt;font-weight:bold" xml:space="preserve"><tspan x="9.4" y="137.9">citizen</tspan></text></g><g id="shape5" transform="translate(385.511811,151.181102)"><path d="M.0,22.7C.0,10.2,49.1,.0,109.6,.0C170.1,.0,219.2,10.2,219.2,22.7C219.2,35.2,170.1,45.4,109.6,45.4C49.1,45.4,.0,35.2,.0,22.7z" stroke="#101843" fill="url(#lg1)" fill-rule="nonzero" stroke-width="1"/><text style="fill:#191919;font-family:Arial,PingFang SC,Mircrosoft YaHei,Arial;font-size:12.00pt;font-weight:bold" xml:space="preserve"><tspan x="52.1" y="28.7">Report Pothole</tspan></text></g><g id="shape6" transform="matrix(0.882353,-0.470588,0.470588,0.882353,158.740157,294.803150)"><path d="M.0,-0.0L245.0,-0.0" stroke="#101843" fill="none" stroke-width="1"/><path d="M257.0,-0.0L245.0,-6.0L245.0,6.0L257.0,-0.0" stroke="#101843" stroke-linejoin="round" fill="none" stroke-linecap="round" stroke-width="1"/></g><g id="shape7" transform="translate(325.039370,107.559055)"><text style="fill:#000000;font-family:Arial,PingFang SC,Mircrosoft YaHei,Arial;font-size:17.00pt;font-weight:bold" xml:space="preserve"><tspan x="11.6" y="27.0">Pothole management system</tspan></text></g><g id="shape8" transform="translate(385.511811,206.338386)"><path d="M.0,22.7C.0,10.2,54.0,.0,120.7,.0C187.3,.0,241.4,10.2,241.4,22.7C241.4,35.2,187.3,45.4,120.7,45.4C54.0,45.4,.0,35.2,.0,22.7z" stroke="#101843" fill="url(#lg1)" fill-rule="nonzero" stroke-width="1"/><text style="fill:#191919;font-family:Arial,PingFang SC,Mircrosoft YaHei,Arial;font-size:12.00pt;font-weight:bold" xml:space="preserve"><tspan x="14.2" y="28.7">Upload Damage Information</tspan></text></g><g id="shape9" transform="translate(385.511811,264.566929)"><path d="M.0,22.7C.0,10.2,54.0,.0,120.7,.0C187.3,.0,241.4,10.2,241.4,22.7C241.4,35.2,187.3,45.4,120.7,45.4C54.0,45.4,.0,35.2,.0,22.7z" stroke="#101843" fill="url(#lg1)" fill-rule="nonzero" stroke-width="1"/><text style="fill:#191919;font-family:Arial,PingFang SC,Mircrosoft YaHei,Arial;font-size:12.00pt;font-weight:bold" xml:space="preserve"><tspan x="44.2" y="28.7">View Pothole Status</tspan></text></g><g id="shape10" transform="matrix(0.960402,-0.278617,0.278617,0.960402,158.740141,294.803119)"><path d="M.0,-0.0L224.1,-0.0" stroke="#101843" fill="none" stroke-width="1"/><path d="M236.1,-0.0L224.1,-6.0L224.1,6.0L236.1,-0.0" stroke="#101843" stroke-linejoin="round" fill="none" stroke-linecap="round" stroke-width="1"/></g><g id="shape11" transform="translate(158.740131,294.803085)"><path d="M.0,-0.0L222.3,-0.0" stroke="#101843" fill="none" stroke-width="1"/><path d="M234.3,-0.0L222.3,-6.0L222.3,6.0L234.3,-0.0" stroke="#101843" stroke-linejoin="round" fill="none" stroke-linecap="round" stroke-width="1"/></g><g id="shape12" transform="translate(389.543220,322.795472)"><path d="M.0,22.7C.0,10.2,54.0,.0,120.7,.0C187.3,.0,241.4,10.2,241.4,22.7C241.4,35.2,187.3,45.4,120.7,45.4C54.0,45.4,.0,35.2,.0,22.7z" stroke="#101843" fill="url(#lg1)" fill-rule="nonzero" stroke-width="1"/><text style="fill:#191919;font-family:Arial,PingFang SC,Mircrosoft YaHei,Arial;font-size:12.00pt;font-weight:bold" xml:space="preserve"><tspan x="61.2" y="28.7">Inspect Pothole</tspan></text></g><g id="shape13" transform="translate(389.543220,374.173244)"><path d="M.0,22.7C.0,10.2,54.0,.0,120.7,.0C187.3,.0,241.4,10.2,241.4,22.7C241.4,35.2,187.3,45.4,120.7,45.4C54.0,45.4,.0,35.2,.0,22.7z" stroke="#101843" fill="url(#lg1)" fill-rule="nonzero" stroke-width="1"/><text style="fill:#191919;font-family:Arial,PingFang SC,Mircrosoft YaHei,Arial;font-size:12.00pt;font-weight:bold" xml:space="preserve"><tspan x="31.2" y="28.7">Update Severity/priority</tspan></text></g><g id="group14" transform="translate(89.158543,417.875472)"><path d="M37.1,.0L37.1,37.9L.0,75.9M37.1,37.9L74.2,75.9M.0,15.2L74.2,15.2" stroke="#101843" fill="none" id="shape15" transform="translate(0.000000,40.811800)" stroke-width="1"/><path d="M.0,20.4C.0,9.1,9.1,.0,20.4,.0C31.7,.0,40.8,9.1,40.8,20.4C40.8,31.7,31.7,40.8,20.4,40.8C9.1,40.8,.0,31.7,.0,20.4z" stroke="#101843" fill="#e55e79" id="shape16" fill-rule="nonzero" transform="translate(16.695600,0.000000)" stroke-width="1"/><text style="fill:#191919;font-family:Arial,PingFang SC,Mircrosoft YaHei,Arial;font-size:16.00pt;font-weight:bold" xml:space="preserve"><tspan x="-3.1" y="137.9">Engineer</tspan></text></g><g id="shape17" transform="translate(385.511638,425.551015)"><path d="M.0,22.7C.0,10.2,54.0,.0,120.7,.0C187.3,.0,241.4,10.2,241.4,22.7C241.4,35.2,187.3,45.4,120.7,45.4C54.0,45.4,.0,35.2,.0,22.7z" stroke="#101843" fill="url(#lg1)" fill-rule="nonzero" stroke-width="1"/><text style="fill:#191919;font-family:Arial,PingFang SC,Mircrosoft YaHei,Arial;font-size:12.00pt;font-weight:bold" xml:space="preserve"><tspan x="58.7" y="28.7">View work order</tspan></text></g><g id="shape18" transform="translate(385.511811,480.856500)"><path d="M.0,22.7C.0,10.2,54.0,.0,120.7,.0C187.3,.0,241.4,10.2,241.4,22.7C241.4,35.2,187.3,45.4,120.7,45.4C54.0,45.4,.0,35.2,.0,22.7z" stroke="#101843" fill="url(#lg1)" fill-rule="nonzero" stroke-width="1"/><text style="fill:#191919;font-family:Arial,PingFang SC,Mircrosoft YaHei,Arial;font-size:12.00pt;font-weight:bold" xml:space="preserve"><tspan x="39.7" y="28.7">Update Repair Status</tspan></text></g><g id="shape19" transform="matrix(0.876812,-0.480833,0.480833,0.876812,158.740157,476.220472)"><path d="M.0,-0.0L255.3,-0.0" stroke="#101843" fill="none" stroke-width="1"/><path d="M267.3,-0.0L255.3,-6.0L255.3,6.0L267.3,-0.0" stroke="#101843" stroke-linejoin="round" fill="none" stroke-linecap="round" stroke-width="1"/></g><g id="shape20" transform="matrix(0.945647,-0.325195,0.325195,0.945647,158.740141,476.220442)"><path d="M.0,-0.0L232.1,-0.0" stroke="#101843" fill="none" stroke-width="1"/><path d="M244.1,-0.0L232.1,-6.0L232.1,6.0L244.1,-0.0" stroke="#101843" stroke-linejoin="round" fill="none" stroke-linecap="round" stroke-width="1"/></g><g id="group21" transform="translate(823.937008,241.505394)"><path d="M37.1,.0L37.1,37.9L.0,75.9M37.1,37.9L74.2,75.9M.0,15.2L74.2,15.2" stroke="#101843" fill="none" id="shape22" transform="translate(0.000000,40.811800)" stroke-width="1"/><path d="M.0,20.4C.0,9.1,9.1,.0,20.4,.0C31.7,.0,40.8,9.1,40.8,20.4C40.8,31.7,31.7,40.8,20.4,40.8C9.1,40.8,.0,31.7,.0,20.4z" stroke="#101843" fill="#e55e79" id="shape23" fill-rule="nonzero" transform="translate(16.695600,0.000000)" stroke-width="1"/><text style="fill:#191919;font-family:Arial,PingFang SC,Mircrosoft YaHei,Arial;font-size:16.00pt;font-weight:bold" xml:space="preserve"><tspan x="-56.6" y="137.9">Repair Crew Leader</tspan></text></g><g id="group24" transform="translate(742.175353,498.897638)"><path d="M37.1,.0L37.1,37.9L.0,75.9M37.1,37.9L74.2,75.9M.0,15.2L74.2,15.2" stroke="#101843" fill="none" id="shape25" transform="translate(0.000000,40.811800)" stroke-width="1"/><path d="M.0,20.4C.0,9.1,9.1,.0,20.4,.0C31.7,.0,40.8,9.1,40.8,20.4C40.8,31.7,31.7,40.8,20.4,40.8C9.1,40.8,.0,31.7,.0,20.4z" stroke="#101843" fill="#e55e79" id="shape26" fill-rule="nonzero" transform="translate(16.695600,0.000000)" stroke-width="1"/><text style="fill:#191919;font-family:Arial,PingFang SC,Mircrosoft YaHei,Arial;font-size:16.00pt;font-weight:bold" xml:space="preserve"><tspan x="9.4" y="137.9">Admin</tspan></text></g><g id="shape27" transform="matrix(-0.903101,0.429429,-0.429429,-0.903101,854.173249,340.157508)"><path d="M.0,-0.0L239.7,-0.0" stroke="#101843" fill="none" stroke-width="1"/><path d="M251.7,-0.0L239.7,-6.0L239.7,6.0L251.7,-0.0" stroke="#101843" stroke-linejoin="round" fill="none" stroke-linecap="round" stroke-width="1"/></g><g id="shape28" transform="matrix(-0.797848,0.602859,-0.602859,-0.797848,854.173228,340.157480)"><path d="M.0,-0.0L272.9,-0.0" stroke="#101843" fill="none" stroke-width="1"/><path d="M284.9,-0.0L272.9,-6.0L272.9,6.0L284.9,-0.0" stroke="#101843" stroke-linejoin="round" fill="none" stroke-linecap="round" stroke-width="1"/></g><g id="shape29" transform="translate(389.543220,591.856500)"><path d="M.0,22.7C.0,10.2,54.0,.0,120.7,.0C187.3,.0,241.4,10.2,241.4,22.7C241.4,35.2,187.3,45.4,120.7,45.4C54.0,45.4,.0,35.2,.0,22.7z" stroke="#101843" fill="url(#lg1)" fill-rule="nonzero" stroke-width="1"/><text style="fill:#191919;font-family:Arial,PingFang SC,Mircrosoft YaHei,Arial;font-size:12.00pt;font-weight:bold" xml:space="preserve"><tspan x="38.7" y="28.7">Compute Repair Cost</tspan></text></g><g id="shape30" transform="translate(393.574630,534.565488)"><path d="M.0,22.7C.0,10.2,54.0,.0,120.7,.0C187.3,.0,241.4,10.2,241.4,22.7C241.4,35.2,187.3,45.4,120.7,45.4C54.0,45.4,.0,35.2,.0,22.7z" stroke="#101843" fill="url(#lg1)" fill-rule="nonzero" stroke-width="1"/><text style="fill:#191919;font-family:Arial,PingFang SC,Mircrosoft YaHei,Arial;font-size:12.00pt;font-weight:bold" xml:space="preserve"><tspan x="50.2" y="28.7">Create Work Order</tspan></text></g><g id="shape31" transform="translate(385.511638,649.147512)"><path d="M.0,22.7C.0,10.2,54.0,.0,120.7,.0C187.3,.0,241.4,10.2,241.4,22.7C241.4,35.2,187.3,45.4,120.7,45.4C54.0,45.4,.0,35.2,.0,22.7z" stroke="#101843" fill="url(#lg1)" fill-rule="nonzero" stroke-width="1"/><text style="fill:#191919;font-family:Arial,PingFang SC,Mircrosoft YaHei,Arial;font-size:12.00pt;font-weight:bold" xml:space="preserve"><tspan x="53.7" y="28.7">Generate Reports</tspan></text></g><g id="shape32" transform="translate(393.574630,706.438524)"><path d="M.0,22.7C.0,10.2,54.0,.0,120.7,.0C187.3,.0,241.4,10.2,241.4,22.7C241.4,35.2,187.3,45.4,120.7,45.4C54.0,45.4,.0,35.2,.0,22.7z" stroke="#101843" fill="url(#lg1)" fill-rule="nonzero" stroke-width="1"/><text style="fill:#191919;font-family:Arial,PingFang SC,Mircrosoft YaHei,Arial;font-size:12.00pt;font-weight:bold" xml:space="preserve"><tspan x="66.2" y="28.7">Manage Users</tspan></text></g><g id="shape33" transform="matrix(-0.642965,0.765895,-0.765895,-0.642965,778.582677,553.142659)"><path d="M.0,-0.0L223.1,-0.0" stroke="#101843" fill="none" stroke-width="1"/><path d="M235.1,-0.0L223.1,-6.0L223.1,6.0L235.1,-0.0" stroke="#101843" stroke-linejoin="round" fill="none" stroke-linecap="round" stroke-width="1"/></g><g id="shape34" transform="matrix(-0.787576,0.616218,-0.616218,-0.787576,778.582704,553.142681)"><path d="M.0,-0.0L180.6,-0.0" stroke="#101843" fill="none" stroke-width="1"/><path d="M192.6,-0.0L180.6,-6.0L180.6,6.0L192.6,-0.0" stroke="#101843" stroke-linejoin="round" fill="none" stroke-linecap="round" stroke-width="1"/></g><g id="shape35" transform="matrix(-0.894427,0.447213,-0.447213,-0.894427,778.582683,536.692948)"><path d="M.0,-0.0L157.0,-0.0" stroke="#101843" fill="none" stroke-width="1"/><path d="M169.0,-0.0L157.0,-6.0L157.0,6.0L169.0,-0.0" stroke="#101843" stroke-linejoin="round" fill="none" stroke-linecap="round" stroke-width="1"/></g><g id="shape36" transform="matrix(-0.987763,0.155963,-0.155963,-0.987763,778.582677,536.692913)"><path d="M.0,-0.0L133.4,-0.0" stroke="#101843" fill="none" stroke-width="1"/><path d="M145.4,-0.0L133.4,-6.0L133.4,6.0L145.4,-0.0" stroke="#101843" stroke-linejoin="round" fill="none" stroke-linecap="round" stroke-width="1"/></g></g></svg>